<svg width="14" height="14" viewBox="0 0 14 14" fill="none" xmlns="http://www.w3.org/2000/svg">
<path d="M6.99998 1.16675C6.38114 1.16675 5.78765 1.41258 5.35006 1.85017C4.91248 2.28775 4.66665 2.88124 4.66665 3.50008C4.66665 4.11892 4.91248 4.71241 5.35006 5.15C5.78765 5.58758 6.38114 5.83342 6.99998 5.83342C7.61882 5.83342 8.21231 5.58758 8.6499 5.15C9.08748 4.71241 9.33331 4.11892 9.33331 3.50008C9.33331 2.88124 9.08748 2.28775 8.6499 1.85017C8.21231 1.41258 7.61882 1.16675 6.99998 1.16675ZM9.91665 7.00008H4.08331C3.61918 7.00008 3.17406 7.18446 2.84588 7.51264C2.51769 7.84083 2.33331 8.28595 2.33331 8.75008C2.33331 10.0521 2.86881 11.0951 3.74731 11.8009C4.61181 12.4951 5.77148 12.8334 6.99998 12.8334C8.22848 12.8334 9.38815 12.4951 10.2526 11.8009C11.13 11.0951 11.6666 10.0521 11.6666 8.75008C11.6666 8.28595 11.4823 7.84083 11.1541 7.51264C10.8259 7.18446 10.3808 7.00008 9.91665 7.00008Z" fill="#F8F8F8"/>
</svg>
